<svg width="254" height="38" viewBox="0 0 254 38" fill="none" xmlns="http://www.w3.org/2000/svg">
<path d="M18.8436 19.2L14.8836 8.68C14.5636 7.86666 14.2369 6.83333 13.9036 5.58C13.7569 6.20667 13.5969 6.78667 13.4236 7.32C13.2503 7.84 13.0903 8.3 12.9436 8.7L8.98359 19.2H18.8436ZM27.7036 30H24.0836C23.6703 30 23.3369 29.9 23.0836 29.7C22.8303 29.4867 22.6369 29.2267 22.5036 28.92L20.1036 22.56H7.70359L5.30359 28.92C5.19693 29.1867 5.01026 29.4333 4.74359 29.66C4.47693 29.8867 4.14359 30 3.74359 30H0.123594L11.5436 1.2H16.2836L27.7036 30ZM34.2464 13.38C34.8864 12.0867 35.6597 11.0733 36.5664 10.34C37.4731 9.59333 38.5597 9.22 39.8264 9.22C40.2664 9.22 40.6797 9.27333 41.0664 9.38C41.4531 9.47333 41.7997 9.62 42.1064 9.82L41.8064 13.06C41.7531 13.2867 41.6664 13.4467 41.5464 13.54C41.4397 13.62 41.2931 13.66 41.1064 13.66C40.9064 13.66 40.6197 13.6267 40.2464 13.56C39.8731 13.48 39.4797 13.44 39.0664 13.44C38.4664 13.44 37.9331 13.5267 37.4664 13.7C37.0131 13.8733 36.5997 14.1267 36.2264 14.46C35.8664 14.7933 35.5464 15.2 35.2664 15.68C34.9864 16.16 34.7264 16.7067 34.4864 17.32V30H30.1864V9.6H32.6864C33.1397 9.6 33.4531 9.68666 33.6264 9.86C33.7997 10.02 33.9197 10.3067 33.9864 10.72L34.2464 13.38ZM58.6689 13.6C58.5356 13.7733 58.4089 13.9067 58.2889 14C58.1689 14.0933 57.9956 14.14 57.7689 14.14C57.5422 14.14 57.3022 14.06 57.0489 13.9C56.8089 13.74 56.5156 13.5667 56.1689 13.38C55.8356 13.18 55.4289 13 54.9489 12.84C54.4689 12.68 53.8689 12.6 53.1489 12.6C52.2156 12.6 51.3956 12.7667 50.6889 13.1C49.9956 13.4333 49.4089 13.9133 48.9289 14.54C48.4622 15.1533 48.1089 15.9067 47.8689 16.8C47.6422 17.68 47.5289 18.6733 47.5289 19.78C47.5289 20.9267 47.6556 21.9467 47.9089 22.84C48.1622 23.7333 48.5222 24.4867 48.9889 25.1C49.4689 25.7133 50.0422 26.18 50.7089 26.5C51.3889 26.82 52.1489 26.98 52.9889 26.98C53.8156 26.98 54.4889 26.88 55.0089 26.68C55.5289 26.48 55.9622 26.26 56.3089 26.02C56.6556 25.78 56.9489 25.56 57.1889 25.36C57.4422 25.16 57.7089 25.06 57.9889 25.06C58.3356 25.06 58.6022 25.1933 58.7889 25.46L60.0089 27.04C59.5156 27.64 58.9689 28.1467 58.3689 28.56C57.7689 28.9733 57.1356 29.3133 56.4689 29.58C55.8022 29.8333 55.1089 30.0133 54.3889 30.12C53.6689 30.24 52.9422 30.3 52.2089 30.3C50.9422 30.3 49.7556 30.0667 48.6489 29.6C47.5556 29.12 46.5956 28.4333 45.7689 27.54C44.9556 26.6333 44.3089 25.5333 43.8289 24.24C43.3622 22.9333 43.1289 21.4467 43.1289 19.78C43.1289 18.2733 43.3422 16.88 43.7689 15.6C44.1956 14.3067 44.8156 13.1933 45.6289 12.26C46.4556 11.3267 47.4756 10.6 48.6889 10.08C49.9022 9.54667 51.3022 9.28 52.8889 9.28C54.3689 9.28 55.6689 9.52 56.7889 10C57.9222 10.48 58.9289 11.16 59.8089 12.04L58.6689 13.6ZM83.2677 30H78.9677V12.98H69.0277V24.56C69.0277 25.2933 69.2077 25.8533 69.5677 26.24C69.9277 26.6267 70.4077 26.82 71.0077 26.82C71.341 26.82 71.6277 26.78 71.8677 26.7C72.1077 26.6067 72.3143 26.5133 72.4877 26.42C72.661 26.3133 72.8077 26.22 72.9277 26.14C73.061 26.0467 73.1877 26 73.3077 26C73.5477 26 73.741 26.1333 73.8877 26.4L75.1677 28.5C74.501 29.0867 73.7143 29.54 72.8077 29.86C71.901 30.1667 70.9677 30.32 70.0077 30.32C68.3143 30.32 67.0077 29.8467 66.0877 28.9C65.181 27.94 64.7277 26.5933 64.7277 24.86V12.98H62.4877C62.2477 12.98 62.041 12.9067 61.8677 12.76C61.6943 12.6 61.6077 12.3667 61.6077 12.06V10.32L64.9077 9.84L65.8477 3.94C65.9143 3.71333 66.0277 3.53333 66.1877 3.4C66.3477 3.25333 66.561 3.18 66.8277 3.18H69.0277V9.88H83.2677V30ZM84.1477 3.34C84.1477 3.72667 84.0677 4.09333 83.9077 4.44C83.761 4.77333 83.5543 5.07333 83.2877 5.34C83.021 5.59333 82.7077 5.8 82.3477 5.96C82.001 6.10667 81.6343 6.18 81.2477 6.18C80.861 6.18 80.4943 6.10667 80.1477 5.96C79.8143 5.8 79.5143 5.59333 79.2477 5.34C78.9943 5.07333 78.7877 4.77333 78.6277 4.44C78.481 4.09333 78.4077 3.72667 78.4077 3.34C78.4077 2.94 78.481 2.56667 78.6277 2.22C78.7877 1.86 78.9943 1.55333 79.2477 1.3C79.5143 1.03333 79.8143 0.826666 80.1477 0.679998C80.4943 0.519999 80.861 0.439999 81.2477 0.439999C81.6343 0.439999 82.001 0.519999 82.3477 0.679998C82.7077 0.826666 83.021 1.03333 83.2877 1.3C83.5543 1.55333 83.761 1.86 83.9077 2.22C84.0677 2.56667 84.1477 2.94 84.1477 3.34ZM103.122 13.6C102.989 13.7733 102.862 13.9067 102.742 14C102.622 14.0933 102.449 14.14 102.222 14.14C101.995 14.14 101.755 14.06 101.502 13.9C101.262 13.74 100.969 13.5667 100.622 13.38C100.289 13.18 99.882 13 99.402 12.84C98.922 12.68 98.322 12.6 97.602 12.6C96.6687 12.6 95.8487 12.7667 95.142 13.1C94.4487 13.4333 93.862 13.9133 93.382 14.54C92.9154 15.1533 92.562 15.9067 92.322 16.8C92.0954 17.68 91.982 18.6733 91.982 19.78C91.982 20.9267 92.1087 21.9467 92.362 22.84C92.6154 23.7333 92.9754 24.4867 93.442 25.1C93.922 25.7133 94.4954 26.18 95.162 26.5C95.842 26.82 96.602 26.98 97.442 26.98C98.2687 26.98 98.942 26.88 99.462 26.68C99.982 26.48 100.415 26.26 100.762 26.02C101.109 25.78 101.402 25.56 101.642 25.36C101.895 25.16 102.162 25.06 102.442 25.06C102.789 25.06 103.055 25.1933 103.242 25.46L104.462 27.04C103.969 27.64 103.422 28.1467 102.822 28.56C102.222 28.9733 101.589 29.3133 100.922 29.58C100.255 29.8333 99.562 30.0133 98.842 30.12C98.122 30.24 97.3954 30.3 96.662 30.3C95.3954 30.3 94.2087 30.0667 93.102 29.6C92.0087 29.12 91.0487 28.4333 90.222 27.54C89.4087 26.6333 88.762 25.5333 88.282 24.24C87.8154 22.9333 87.582 21.4467 87.582 19.78C87.582 18.2733 87.7954 16.88 88.222 15.6C88.6487 14.3067 89.2687 13.1933 90.082 12.26C90.9087 11.3267 91.9287 10.6 93.142 10.08C94.3554 9.54667 95.7554 9.28 97.342 9.28C98.822 9.28 100.122 9.52 101.242 10C102.375 10.48 103.382 11.16 104.262 12.04L103.122 13.6ZM137.291 5.1H128.311V30H123.651V5.1H114.651V1.2H137.291V5.1ZM140.34 13.38C140.98 12.0867 141.753 11.0733 142.66 10.34C143.567 9.59333 144.653 9.22 145.92 9.22C146.36 9.22 146.773 9.27333 147.16 9.38C147.547 9.47333 147.893 9.62 148.2 9.82L147.9 13.06C147.847 13.2867 147.76 13.4467 147.64 13.54C147.533 13.62 147.387 13.66 147.2 13.66C147 13.66 146.713 13.6267 146.34 13.56C145.967 13.48 145.573 13.44 145.16 13.44C144.56 13.44 144.027 13.5267 143.56 13.7C143.107 13.8733 142.693 14.1267 142.32 14.46C141.96 14.7933 141.64 15.2 141.36 15.68C141.08 16.16 140.82 16.7067 140.58 17.32V30H136.28V9.6H138.78C139.233 9.6 139.547 9.68666 139.72 9.86C139.893 10.02 140.013 10.3067 140.08 10.72L140.34 13.38ZM161.633 21.08C160.1 21.1333 158.807 21.26 157.753 21.46C156.7 21.6467 155.847 21.8933 155.193 22.2C154.54 22.4933 154.067 22.8467 153.773 23.26C153.493 23.6733 153.353 24.1267 153.353 24.62C153.353 25.1 153.427 25.5133 153.573 25.86C153.733 26.1933 153.947 26.4733 154.213 26.7C154.493 26.9133 154.813 27.0733 155.173 27.18C155.547 27.2733 155.953 27.32 156.393 27.32C157.513 27.32 158.473 27.1133 159.273 26.7C160.087 26.2733 160.873 25.66 161.633 24.86V21.08ZM150.233 12.44C152.54 10.2933 155.287 9.22 158.473 9.22C159.647 9.22 160.687 9.41333 161.593 9.8C162.513 10.1733 163.28 10.7067 163.893 11.4C164.52 12.0933 164.993 12.92 165.313 13.88C165.647 14.8267 165.813 15.88 165.813 17.04V30H163.893C163.48 30 163.167 29.94 162.953 29.82C162.74 29.6867 162.56 29.4267 162.413 29.04L161.993 27.38C161.473 27.8467 160.96 28.2667 160.453 28.64C159.947 29 159.42 29.3067 158.873 29.56C158.34 29.8133 157.76 30 157.133 30.12C156.52 30.2533 155.84 30.32 155.093 30.32C154.267 30.32 153.493 30.2067 152.773 29.98C152.067 29.7533 151.453 29.4133 150.933 28.96C150.413 28.4933 150 27.92 149.693 27.24C149.4 26.56 149.253 25.76 149.253 24.84C149.253 24.0533 149.46 23.2867 149.873 22.54C150.3 21.7933 150.993 21.1267 151.953 20.54C152.927 19.94 154.2 19.4467 155.773 19.06C157.36 18.6733 159.313 18.4533 161.633 18.4V17.04C161.633 15.5733 161.32 14.48 160.693 13.76C160.067 13.04 159.147 12.68 157.933 12.68C157.107 12.68 156.413 12.7867 155.853 13C155.293 13.2 154.807 13.42 154.393 13.66C153.98 13.9 153.613 14.1267 153.293 14.34C152.973 14.54 152.633 14.64 152.273 14.64C151.98 14.64 151.727 14.5667 151.513 14.42C151.313 14.26 151.147 14.0667 151.013 13.84L150.233 12.44ZM175.33 9.6V30H171.03V9.6H175.33ZM176.05 3.44C176.05 3.82667 175.97 4.19333 175.81 4.54C175.664 4.88667 175.457 5.19333 175.19 5.46C174.924 5.71333 174.61 5.92 174.25 6.08C173.904 6.22667 173.53 6.3 173.13 6.3C172.744 6.3 172.377 6.22667 172.03 6.08C171.697 5.92 171.404 5.71333 171.15 5.46C170.897 5.19333 170.69 4.88667 170.53 4.54C170.384 4.19333 170.31 3.82667 170.31 3.44C170.31 3.04 170.384 2.66667 170.53 2.32C170.69 1.97333 170.897 1.67333 171.15 1.42C171.404 1.15333 171.697 0.946665 172.03 0.799999C172.377 0.639998 172.744 0.559998 173.13 0.559998C173.53 0.559998 173.904 0.639998 174.25 0.799999C174.61 0.946665 174.924 1.15333 175.19 1.42C175.457 1.67333 175.664 1.97333 175.81 2.32C175.97 2.66667 176.05 3.04 176.05 3.44ZM184.753 12.3C185.193 11.8467 185.647 11.44 186.113 11.08C186.593 10.7067 187.1 10.3867 187.633 10.12C188.167 9.85333 188.733 9.64667 189.333 9.5C189.933 9.35333 190.587 9.28 191.293 9.28C192.413 9.28 193.393 9.46667 194.233 9.84C195.087 10.2133 195.8 10.74 196.373 11.42C196.96 12.1 197.4 12.92 197.693 13.88C197.987 14.8267 198.133 15.8733 198.133 17.02V30H193.853V17.02C193.853 15.6467 193.533 14.58 192.893 13.82C192.267 13.06 191.307 12.68 190.013 12.68C189.053 12.68 188.16 12.9 187.333 13.34C186.52 13.78 185.753 14.38 185.033 15.14V30H180.733V9.6H183.333C183.92 9.6 184.293 9.87333 184.453 10.42L184.753 12.3ZM207.635 9.6V30H203.335V9.6H207.635ZM208.355 3.44C208.355 3.82667 208.275 4.19333 208.115 4.54C207.968 4.88667 207.762 5.19333 207.495 5.46C207.228 5.71333 206.915 5.92 206.555 6.08C206.208 6.22667 205.835 6.3 205.435 6.3C205.048 6.3 204.682 6.22667 204.335 6.08C204.002 5.92 203.708 5.71333 203.455 5.46C203.202 5.19333 202.995 4.88667 202.835 4.54C202.688 4.19333 202.615 3.82667 202.615 3.44C202.615 3.04 202.688 2.66667 202.835 2.32C202.995 1.97333 203.202 1.67333 203.455 1.42C203.708 1.15333 204.002 0.946665 204.335 0.799999C204.682 0.639998 205.048 0.559998 205.435 0.559998C205.835 0.559998 206.208 0.639998 206.555 0.799999C206.915 0.946665 207.228 1.15333 207.495 1.42C207.762 1.67333 207.968 1.97333 208.115 2.32C208.275 2.66667 208.355 3.04 208.355 3.44ZM217.058 12.3C217.498 11.8467 217.951 11.44 218.418 11.08C218.898 10.7067 219.405 10.3867 219.938 10.12C220.471 9.85333 221.038 9.64667 221.638 9.5C222.238 9.35333 222.891 9.28 223.598 9.28C224.718 9.28 225.698 9.46667 226.538 9.84C227.391 10.2133 228.105 10.74 228.678 11.42C229.265 12.1 229.705 12.92 229.998 13.88C230.291 14.8267 230.438 15.8733 230.438 17.02V30H226.158V17.02C226.158 15.6467 225.838 14.58 225.198 13.82C224.571 13.06 223.611 12.68 222.318 12.68C221.358 12.68 220.465 12.9 219.638 13.34C218.825 13.78 218.058 14.38 217.338 15.14V30H213.038V9.6H215.638C216.225 9.6 216.598 9.87333 216.758 10.42L217.058 12.3ZM242.74 19.62C244.073 19.62 245.073 19.28 245.74 18.6C246.407 17.92 246.74 17.0333 246.74 15.94C246.74 14.82 246.407 13.9333 245.74 13.28C245.073 12.6267 244.073 12.3 242.74 12.3C241.42 12.3 240.42 12.6267 239.74 13.28C239.073 13.9333 238.74 14.82 238.74 15.94C238.74 16.4733 238.827 16.9667 239 17.42C239.173 17.8733 239.427 18.2667 239.76 18.6C240.093 18.92 240.507 19.1733 241 19.36C241.507 19.5333 242.087 19.62 242.74 19.62ZM248.72 31C248.72 30.5467 248.587 30.1867 248.32 29.92C248.067 29.64 247.72 29.4267 247.28 29.28C246.84 29.12 246.327 29.0067 245.74 28.94C245.153 28.86 244.527 28.8067 243.86 28.78C243.207 28.74 242.533 28.7067 241.84 28.68C241.16 28.64 240.5 28.5733 239.86 28.48C239.22 28.8133 238.693 29.2133 238.28 29.68C237.88 30.1467 237.68 30.6867 237.68 31.3C237.68 31.7 237.78 32.0733 237.98 32.42C238.193 32.7667 238.513 33.0667 238.94 33.32C239.38 33.5733 239.933 33.7733 240.6 33.92C241.28 34.0667 242.093 34.14 243.04 34.14C244.933 34.14 246.353 33.8467 247.3 33.26C248.247 32.6733 248.72 31.92 248.72 31ZM253.04 10.34V11.94C253.04 12.4733 252.72 12.8 252.08 12.92L250.04 13.26C250.387 14.0333 250.56 14.8933 250.56 15.84C250.56 16.84 250.36 17.7467 249.96 18.56C249.573 19.3733 249.033 20.0667 248.34 20.64C247.647 21.2133 246.82 21.6533 245.86 21.96C244.9 22.2667 243.86 22.42 242.74 22.42C242.313 22.42 241.893 22.4 241.48 22.36C241.08 22.3067 240.687 22.24 240.3 22.16C239.913 22.3867 239.627 22.6267 239.44 22.88C239.253 23.1333 239.16 23.3933 239.16 23.66C239.16 24.1 239.353 24.4267 239.74 24.64C240.127 24.8533 240.633 25.0067 241.26 25.1C241.9 25.1933 242.627 25.2533 243.44 25.28C244.253 25.3067 245.08 25.3533 245.92 25.42C246.76 25.4867 247.587 25.6 248.4 25.76C249.213 25.9067 249.933 26.16 250.56 26.52C251.2 26.8667 251.713 27.34 252.1 27.94C252.487 28.54 252.68 29.32 252.68 30.28C252.68 31.16 252.46 32.02 252.02 32.86C251.58 33.7 250.94 34.4467 250.1 35.1C249.273 35.7533 248.26 36.2733 247.06 36.66C245.86 37.06 244.493 37.26 242.96 37.26C241.44 37.26 240.113 37.1133 238.98 36.82C237.86 36.5267 236.92 36.1267 236.16 35.62C235.413 35.1267 234.853 34.5533 234.48 33.9C234.12 33.2467 233.94 32.5667 233.94 31.86C233.94 30.9 234.24 30.08 234.84 29.4C235.453 28.72 236.28 28.1867 237.32 27.8C236.76 27.5333 236.307 27.1667 235.96 26.7C235.627 26.2333 235.46 25.62 235.46 24.86C235.46 24.26 235.68 23.6333 236.12 22.98C236.56 22.3267 237.22 21.7733 238.1 21.32C237.087 20.76 236.287 20.02 235.7 19.1C235.113 18.1667 234.82 17.08 234.82 15.84C234.82 14.8267 235.013 13.9133 235.4 13.1C235.8 12.2867 236.353 11.5933 237.06 11.02C237.767 10.4467 238.6 10.0067 239.56 9.7C240.533 9.39333 241.593 9.24 242.74 9.24C244.5 9.24 246.033 9.60666 247.34 10.34H253.04Z" fill="#249EDC"/>
</svg>
